<svg xmlns="http://www.w3.org/2000/svg" viewBox="0 0 24 24"><g fill-rule="evenodd" clip-path="url(#a)" clip-rule="evenodd"><path d="M2 3a3 3 0 0 1 3-3h14a3 3 0 0 1 3 3v18a3 3 0 0 1-3 3H5a3 3 0 0 1-3-3V3zm3-1a1 1 0 0 0-1 1v18a1 1 0 0 0 1 1h14a1 1 0 0 0 1-1V3a1 1 0 0 0-1-1H5z"/><path d="M7.612 9a4.515 4.515 0 0 0 0 2h1.94a9.834 9.834 0 0 1 0-2h-1.94zm.356-1h1.738c.136-.652.33-1.242.552-1.74.08-.18.166-.35.255-.508A4.514 4.514 0 0 0 7.968 8zM12 4.5a5.5 5.5 0 1 0 0 11 5.5 5.5 0 0 0 0-11zm0 1.005c-.025.011-.114.055-.259.22-.18.203-.381.522-.57.944-.17.38-.324.831-.44 1.331h2.54c-.118-.5-.271-.95-.442-1.33-.189-.423-.39-.742-.57-.946-.145-.164-.233-.208-.259-.22zM14.294 8a8.58 8.58 0 0 0-.552-1.74c-.08-.18-.166-.35-.255-.508A4.514 4.514 0 0 1 16.032 8h-1.738zm-.85 1h-2.887a8.843 8.843 0 0 0 0 2h2.886a8.83 8.83 0 0 0 0-2zm1.005 2a9.843 9.843 0 0 0 0-2h1.94a4.517 4.517 0 0 1 0 2h-1.94zm-1.178 1H10.73c.117.5.27.951.441 1.332.189.422.39.74.57.945.145.164.234.208.26.22.025-.012.113-.056.258-.22.18-.204.381-.523.57-.945.17-.38.324-.831.441-1.332zm-2.758 2.25a6.204 6.204 0 0 1-.255-.51A8.576 8.576 0 0 1 9.706 12H7.968a4.514 4.514 0 0 0 2.545 2.25zM14.294 12h1.739a4.514 4.514 0 0 1-2.546 2.25c.09-.16.175-.33.255-.51a8.572 8.572 0 0 0 .552-1.74zM17 19H7v-1h10v1z"/></g><defs><clipPath id="a"><path d="M0 0h24v24H0z"/></clipPath></defs></svg>